<svg xmlns="http://www.w3.org/2000/svg" width="512" height="512"><path d="M187.07 234.524c2.187.75 4.326 1.576 6.47 2.44.794.31 1.59.618 2.409.936 2.564 1 5.12 2.018 7.676 3.038l5.305 2.084q5.204 2.047 10.4 4.12c3.847 1.533 7.703 3.043 11.565 4.542C245.89 257.566 259.837 264.264 272 275l2.547 2.184c10.04 8.778 18.353 18.481 24.902 30.125l1.31 2.308a253 253 0 0 1 2.514 4.582c2.568 4.582 4.544 7.03 9.727 8.801 4.249 0 6.251-.35 9.48-3.152 2.648-2.993 4.395-5.888 6.27-9.41 9.171-16.719 9.171-16.719 16.25-21.438 3.873-.423 6.116-.567 9.438 1.563 2.158 3.366 1.928 5.482 1.562 9.437-1.652 2.965-1.652 2.965-3.937 5.938-3.693 4.945-6.736 9.986-9.625 15.437-4.644 8.554-9.81 14.637-19.438 17.625-8.825 1.75-16.152 1.044-23.812-3.812-5.61-3.812-8.645-8.838-11.84-14.672C270.681 290.188 246.55 275.994 215 264l-7.32-2.82a4005 4005 0 0 0-16.463-6.307C189 254 189 254 187 253l-.38 2.583q-.717 4.77-1.482 9.532a385 385 0 0 0-.625 4.118 405 405 0 0 1-.931 5.935l-.555 3.602c-1.661 5.225-5.398 8.064-9.918 10.914l-2.138 1.364-2.221 1.39q-2.276 1.443-4.55 2.89l-2.195 1.389c-3.196 2.045-6.322 4.192-9.439 6.357C151 304 151 304 149 304l.734 2.867c1.113 4.372 2.192 8.752 3.266 13.133l.598 2.412c.586 2.38 1.152 4.764 1.715 7.15l.555 2.232c1.202 5.212 1.904 10.066-.86 14.964-1.29 1.87-2.657 3.65-4.07 5.43q-1.495 1.968-2.985 3.94l-1.502 1.966a299 299 0 0 0-6.263 8.531l-2.02 2.79c-1.427 2.487-1.427 2.487-.691 4.944 2.054 3.562 4.336 6.911 6.71 10.266q1.485 2.145 2.965 4.293a376 376 0 0 0 5.164 7.258l1.934 2.762 1.703 2.34c2.918 7.587-1.26 18.057-3.015 25.66q-.835 3.637-1.66 7.277l-.743 3.222c-.603 2.453-.603 2.453-.535 4.563 2.183 1.635 2.183 1.635 5.004 3.3l3.185 1.964 3.374 2.049c4.157 2.543 8.306 5.1 12.437 7.687l2.278 1.415c2.678 1.764 4.496 3.138 5.956 6.03 1.246 6.476 2.326 12.97 3.344 19.485l.417 2.652L187 493q10.064-3.82 20.111-7.678 3.41-1.306 6.822-2.6c23.552-8.665 23.552-8.665 44.505-22.222l1.749-1.427A283 283 0 0 0 265 455l2.266-1.953c8.907-8.328 15.696-18.839 21.359-29.547 3.944-7.383 8.24-12.428 16.191-15.637 7.696-2.086 16.434-2.174 23.747 1.2 7.978 4.776 11.453 11.664 15.765 19.598 14.33 25.834 37.559 40.917 64.57 51.162a1812 1812 0 0 1 8.764 3.357q4.978 1.916 9.963 3.82l1.972.757q2.782 1.063 5.567 2.118l3.264 1.242c2.434.991 2.434.991 4.572.883l.38-2.491a933 933 0 0 1 1.482-9.197c.32-1.971.621-3.945.921-5.92l.635-3.779.555-3.475c1.752-5.354 5.735-8.195 10.39-11.075l2.44-1.524 2.51-1.539 2.474-1.54q2.424-1.505 4.852-3.003c3.463-2.137 6.912-4.297 10.361-6.457q-1.185-5.97-2.375-11.937l-.672-3.385-.664-3.33-.651-3.285c-.56-2.689-1.2-5.34-1.865-8.004-1.18-5.42-.55-9.085 2.45-13.758a315 315 0 0 1 2.84-3.988l1.487-2.12a262 262 0 0 1 6.993-9.505l2.207-2.875 1.984-2.481c1.628-3 1.194-4.102.266-7.332-1.185-2.105-1.185-2.105-2.73-4.074l-1.678-2.258c-.88-1.166-.88-1.166-1.78-2.355q-1.778-2.424-3.55-4.852l-1.714-2.34c-1.851-2.536-3.686-5.068-5.423-7.683l-1.367-2.004c-2.356-7.565 1.511-17.379 3.305-24.809q.834-3.48 1.66-6.96l.742-3.08c.636-2.635.636-2.635.535-5.585-1.491-1.318-1.491-1.318-3.516-2.418l-2.277-1.352-2.457-1.417q-2.478-1.473-4.953-2.95l-2.47-1.466c-3.16-1.897-6.248-3.873-9.327-5.897l-2.812-1.844c-4.093-3.098-4.643-6.226-5.477-11.074l-.664-3.799-.672-3.97-.695-4.006q-.85-4.902-1.68-9.807c-8.641 2.321-16.929 5.529-25.256 8.768-2.34.908-4.684 1.804-7.03 2.699-11.192 4.316-22.692 8.852-32.714 15.533-3.55.323-6.097.404-9.375-1.062-2.495-2.975-2.69-5.09-2.625-8.938 3.314-4.767 6.863-7.548 12.04-10.187l2.187-1.136c11.038-5.525 22.711-9.663 34.261-13.971 3.18-1.19 6.353-2.392 9.528-3.593 22.898-8.647 22.898-8.647 28.984-8.113 4.094 2.818 4.753 6.02 5.616 10.65l.447 2.6.543 2.7c.821 4.17 1.48 8.143 1.468 12.398.196 4.42.4 7.978 2.926 11.652 6.315 5.538 13.789 9.48 21.146 13.45a181 181 0 0 1 7.499 4.288l1.843 1.115C496 294 496 294 498 297c.327 5.464-.266 10.08-1.566 15.422l-.478 2.022c-.667 2.82-1.355 5.634-2.04 8.45-.502 2.07-.992 4.142-1.482 6.215l-.905 3.718c-.76 4.555.056 6.905 2.659 10.607l1.356 1.947 1.456 2.057 1.482 2.138a336 336 0 0 0 7.248 10.084l1.26 1.715a397 397 0 0 0 3.428 4.563c1.965 3.803 2.462 6.914 1.582 11.062-1.299 2.804-3.016 5.165-4.875 7.625l-1.483 2.085a193 193 0 0 1-7.67 10.017c-4.923 5.889-4.923 5.889-7.324 13.003.493 3.219 1.396 6.154 2.352 9.27a441 441 0 0 1 1.95 8.698q.664 3.063 1.37 6.118c2.377 10.474 2.377 10.474 1.68 15.184-3.656 4.872-9.06 7.787-14.187 10.938l-2.424 1.513-2.432 1.514-2.445 1.56C474 466 474 466 471.28 467.135c-2.99 1.354-4.98 2.507-7.279 4.865-2.02 5.386-2.728 10.816-3.437 16.5q-.48 3.38-.99 6.755-.311 2.091-.575 4.188c-.618 4.52-1.658 9.217-4.998 12.557-6.95.461-11.981-.653-18.398-3.219l-2.65-1.018a1176 1176 0 0 1-8.327-3.263q-2.732-1.057-5.465-2.11a1035 1035 0 0 1-26.578-10.706l-2.317-.97c-26.942-11.401-47.968-30.818-62.242-56.202l-1.835-3.262-1.583-2.922c-1.737-2.519-2.737-3.36-5.605-4.328-5.494-.436-8.5-.472-13 3a73 73 0 0 0-3.75 6.938c-9.321 18.483-24.416 35.137-41.937 46.25l-1.739 1.113c-14.605 8.888-30.868 14.659-46.824 20.574q-3.072 1.147-6.145 2.297-4.304 1.612-8.614 3.215c-3.333 1.239-6.658 2.477-9.952 3.82-2.312.9-4.189 1.125-6.664 1.168l-2.29.086C176 512 176 512 174.353 510.555c-1.997-3.774-2.597-7.629-3.352-11.805l-.544-2.691c-.833-4.193-1.531-8.275-1.745-12.547-.333-4.877-.65-9.528-4.36-13.1-4.353-3.228-9.108-5.674-13.927-8.125-3.83-2.033-7.398-4.42-10.986-6.85l-1.93-1.267c-4.383-2.92-4.383-2.92-5.508-5.17-.255-5.044.375-9.396 1.566-14.29l.971-4.1a2332 2332 0 0 1 1.548-6.373c.502-2.069.992-4.141 1.481-6.214l.905-3.72c.766-4.78.126-7.91-2.658-11.834l-1.357-1.938L133 398.5l-1.482-2.125a366 366 0 0 0-7.248-10.031l-1.26-1.717a380 380 0 0 0-3.428-4.564c-1.994-3.86-2.618-6.873-1.582-11.063 1.84-3.56 4.15-6.683 6.563-9.875l1.845-2.527a667 667 0 0 1 7.628-10.276l1.944-2.63 1.775-2.354c2.534-4.757.568-9.4-.755-14.338-.669-2.898-1.31-5.8-1.944-8.706a516 516 0 0 0-1.377-6.11c-2.375-10.48-2.375-10.48-1.679-15.184 3.554-4.715 8.608-7.424 13.625-10.375a440 440 0 0 0 6.874-4.161C155 281 155 281 157.915 279.67c4.773-2.405 7.485-4.132 9.47-9.224 1.047-4.288 1.59-8.632 2.115-13.01q.468-3.37.97-6.735c.295-2.03.555-4.067.813-6.103.732-3.676 1.798-6.39 3.717-9.599 3.732-1.866 8.103-1.48 12.07-.476"/><path d="M61.625-.437c4.822.038 8.82 1.444 13.25 3.187l1.983.764C80.568 5.055 83.138 6.364 85 10c.215 2.035.215 2.035-.062 4.063l-.223 2.035C83.708 18.776 82.453 19.557 80 21c-2.797.074-2.797.074-5.75-.312l-2.984-.364L69 20l-.38 2.491a933 933 0 0 1-1.482 9.197c-.32 1.971-.621 3.945-.921 5.92l-.635 3.779-.555 3.475c-1.752 5.354-5.735 8.195-10.39 11.075l-2.44 1.524L49.687 59l-2.474 1.54a1618 1618 0 0 1-4.852 3.003A1840 1840 0 0 0 32 70q1.185 5.97 2.375 11.938l.672 3.384.664 3.33.651 3.285c.56 2.689 1.2 5.34 1.865 8.004 1.18 5.42.55 9.085-2.45 13.758a315 315 0 0 1-2.84 3.989l-1.487 2.12a262 262 0 0 1-6.993 9.504c-.728.95-1.457 1.898-2.207 2.875l-1.984 2.481c-1.628 3-1.194 4.102-.266 7.332 1.185 2.105 1.185 2.105 2.73 4.074l1.678 2.258 1.78 2.356q1.778 2.423 3.55 4.851l1.714 2.34c1.851 2.536 3.686 5.068 5.423 7.684l1.367 2.003c2.356 7.565-1.511 17.379-3.304 24.809q-.835 3.48-1.66 6.96l-.743 3.08c-.636 2.635-.636 2.635-.535 5.585 1.491 1.318 1.491 1.318 3.516 2.418l2.277 1.352 2.457 1.417q2.478 1.473 4.953 2.95l2.47 1.466c3.16 1.897 6.248 3.873 9.327 5.897l2.813 1.844c4.092 3.098 4.642 6.226 5.476 11.074l.664 3.799.672 3.97.695 4.006q.85 4.902 1.68 9.807c8.641-2.321 16.929-5.529 25.256-8.768 2.34-.908 4.684-1.804 7.03-2.699 7.64-2.945 15.132-6.072 22.468-9.717l1.937-.959c6.362-3.243 11.827-7.294 17.309-11.857l2.797-2.266c10.277-8.767 17.549-19.413 23.89-31.234 4.593-8.525 9.733-14.527 19.313-17.5 8.825-1.75 16.152-1.044 23.813 3.813 5.61 3.811 8.644 8.837 11.839 14.671C241.319 221.812 265.45 236.006 297 248l7.32 2.82q8.224 3.172 16.463 6.307C323 258 323 258 325 259l.38-2.583q.717-4.77 1.482-9.532.323-2.058.625-4.118c.29-1.981.61-3.958.931-5.935l.555-3.602c1.661-5.225 5.398-8.064 9.918-10.914l2.138-1.364 2.221-1.39 4.55-2.89 2.195-1.389c3.196-2.045 6.322-4.192 9.439-6.357C361 208 361 208 363 208l-.734-2.867A1547 1547 0 0 1 359 192l-.598-2.412a760 760 0 0 1-1.714-7.15l-.556-2.232c-1.202-5.212-1.904-10.066.86-14.964 1.29-1.87 2.657-3.65 4.07-5.43q1.495-1.969 2.985-3.94l1.502-1.966a299 299 0 0 0 6.264-8.531l2.019-2.79c1.427-2.487 1.427-2.487.691-4.944-2.054-3.562-4.336-6.911-6.71-10.266q-1.485-2.145-2.965-4.293a376 376 0 0 0-5.164-7.258l-1.934-2.761-1.703-2.34c-2.918-7.588 1.26-18.058 3.015-25.66q.834-3.639 1.66-7.278l.743-3.222c.603-2.453.603-2.453.535-4.563-2.183-1.635-2.183-1.635-5.004-3.3l-3.185-1.964-3.373-2.049C346.28 60.145 342.13 57.588 338 55l-2.278-1.415c-2.678-1.764-4.496-3.138-5.956-6.03-1.246-6.476-2.326-12.97-3.344-19.485l-.417-2.652L325 19a5528 5528 0 0 0-20.111 7.678q-3.41 1.306-6.822 2.6c-23.552 8.665-23.552 8.665-44.505 22.222l-1.749 1.427A283 283 0 0 0 247 57l-2.266 1.953c-8.907 8.328-15.696 18.839-21.359 29.547-3.944 7.383-8.24 12.428-16.191 15.637-7.696 2.086-16.434 2.174-23.746-1.2-7.981-4.777-11.453-11.666-15.768-19.6-13.516-24.352-35.599-40.595-61.377-50.232C104 32 104 32 102 29c-.48-3.687-.23-5.56 1.5-8.875 2.918-2.48 4.573-2.498 8.32-2.392 3.643.446 6.701 1.826 9.993 3.392l2.108.97c2.037.947 4.06 1.92 6.079 2.905l3.059 1.484c21.93 11.332 38.95 29.721 50.918 51.004l1.835 3.262 1.583 2.922c1.737 2.519 2.737 3.36 5.605 4.328 5.494.436 8.5.472 13-3a73 73 0 0 0 3.75-6.937C215.487 66.687 223.298 57.253 232 48l1.629-1.824c16.803-18.067 41.738-26.87 64.246-35.176l6.84-2.559q7.45-2.79 14.913-5.546a184 184 0 0 0 5.029-1.987c2.458-.952 4.342-1.238 6.968-1.283l2.29-.086C336 0 336 0 337.647 1.445c1.997 3.774 2.597 7.629 3.352 11.805l.544 2.691c.833 4.193 1.531 8.275 1.745 12.547.333 4.877.65 9.528 4.36 13.1 4.353 3.228 9.108 5.674 13.927 8.125 3.83 2.033 7.398 4.42 10.986 6.85l1.93 1.267c4.383 2.92 4.383 2.92 5.508 5.17.255 5.044-.375 9.396-1.566 14.29l-.971 4.1q-.77 3.188-1.548 6.373c-.502 2.069-.992 4.141-1.481 6.214l-.905 3.72c-.766 4.78-.126 7.91 2.659 11.834l1.356 1.938L379 113.5l1.482 2.125a366 366 0 0 0 7.248 10.031l1.26 1.717a380 380 0 0 0 3.428 4.564c1.994 3.86 2.618 6.873 1.582 11.063-1.84 3.56-4.15 6.683-6.562 9.875l-1.846 2.527c-5.092 6.973-5.092 6.973-7.654 10.177-3.946 5.047-3.946 5.047-5.067 11.198A95 95 0 0 0 374 181q.712 3.219 1.41 6.441 1.239 5.372 2.506 10.737c2.832 12.337 2.832 12.337 2.084 16.822-3.554 4.715-8.608 7.424-13.625 10.375a440 440 0 0 0-6.874 4.161C357 231 357 231 354.085 232.33c-4.773 2.405-7.485 4.132-9.47 9.224-1.047 4.288-1.59 8.632-2.115 13.01a688 688 0 0 1-.97 6.735 337 337 0 0 0-.813 6.103c-.732 3.676-1.798 6.39-3.717 9.599-3.856 1.928-8.219 1.475-12.285.391-2.514-.878-4.983-1.834-7.453-2.829l-2.789-1.085c-2.934-1.147-5.86-2.312-8.786-3.477q-2.883-1.129-5.767-2.254a1329 1329 0 0 1-27.365-11.058l-2.29-.95c-11.15-4.7-21.128-10.777-30.265-18.738l-2.555-2.187c-10.034-8.784-18.345-18.479-24.894-30.122l-1.31-2.308a253 253 0 0 1-2.514-4.582c-2.568-4.582-4.544-7.03-9.727-8.801-4.249 0-6.251.35-9.48 3.152-2.648 2.993-4.395 5.888-6.27 9.41-18.218 33.031-46.111 49.5-80.19 62.643q-3.297 1.273-6.59 2.552-5.93 2.293-11.878 4.542-2.326.882-4.648 1.774c-2.18.835-4.366 1.655-6.553 2.47l-1.951.756c-4.276 1.568-7.902 2.047-12.44 1.701-2.635-1.623-3.678-3.004-4.63-5.947-.57-2.424-1.011-4.849-1.432-7.303l-.544-2.7c-.821-4.17-1.48-8.143-1.468-12.398-.196-4.418-.403-7.979-2.926-11.652-6.29-5.51-13.74-9.402-21.06-13.364-11.252-6.26-11.252-6.26-12.94-9.636-.24-5.46.267-10.08 1.566-15.422l.478-2.022c.667-2.82 1.355-5.634 2.04-8.45.502-2.07.992-4.142 1.482-6.215l.905-3.718c.76-4.555-.056-6.905-2.658-10.607l-1.357-1.947L15 164.563l-1.482-2.14A336 336 0 0 0 6.27 152.34l-1.26-1.715a397 397 0 0 0-3.428-4.562C-.383 142.259-.88 139.148 0 135c1.299-2.804 3.016-5.165 4.875-7.625l1.483-2.085a193 193 0 0 1 7.67-10.017c4.923-5.889 4.923-5.889 7.324-13.003C20.859 99.05 19.956 96.116 19 93a441 441 0 0 1-1.95-8.698 434 434 0 0 0-1.37-6.118C13.302 67.71 13.302 67.71 14 63c3.656-4.872 9.06-7.787 14.188-10.937l2.423-1.514 2.432-1.514 2.445-1.56C38 46 38 46 40.72 44.865 43.711 43.51 45.701 42.358 48 40c2.02-5.386 2.728-10.816 3.438-16.5q.478-3.38.99-6.755.31-2.091.574-4.188C53.844 6.396 54.924.371 61.625-.437"/><path d="M136 62c3.05 1.969 5.484 4.397 8 7l2.004 2.012c6.528 6.91 11.234 14.93 15.773 23.242C167.737 105.052 174.334 110.78 186 115c11.321 2.821 21.991.89 32.125-4.562 8.815-5.629 13.273-14 17.965-23.063C241.057 78.599 248.863 66.569 258 62c3.799-.352 6.144-.527 9.438 1.5 1.723 2.757 2.491 4.954 2.34 8.234-1.442 4.2-4.933 6.764-8.122 9.72-6.747 6.469-11.055 14.776-15.46 22.925-2.103 3.856-4.322 7.267-7.196 10.621 12.466-2.069 24.26-5.503 35.797-10.695 3.686-1.502 5.44-1.502 9.203-.305 2.833 1.759 3.029 3.104 3.938 6.375.062 3.625.062 3.625-1.356 6.098-3.53 3.456-7.255 4.863-11.832 6.59l-2.698 1.043c-17.914 6.759-35.867 9.215-54.939 9.195l-4.78.013q-4.98.01-9.962.002-5.045-.007-10.09.02c-26.686.144-51.94-.679-76.656-11.899l-1.894-.85c-3.473-1.665-5.886-3.152-7.731-6.587.12-3.428.333-5.947 2.188-8.875 2.715-1.686 4.588-1.94 7.812-2.125 3.23.94 6.245 2.316 9.313 3.688 6.7 2.846 13.271 5.247 20.374 6.874l2.195.509c1.695.366 3.406.656 5.118.929l1-1-1.215-1.879c-5.476-8.531-5.476-8.531-7.832-12.734C139.444 89.647 132.9 81.9 125 74c-.58-7.072-.58-7.072 1.563-10.5 3.543-2.18 5.328-2.253 9.437-1.5M294.887 378.7l4.78-.014q4.98-.01 9.962-.002 5.045.007 10.09-.02c27.863-.15 57.279.108 82.281 14.336 2.39 2.46 2.39 2.46 4 5-.06 3.497-.302 5.898-2.187 8.875-2.716 1.686-4.59 1.94-7.813 2.125-3.23-.94-6.245-2.316-9.312-3.687-6.702-2.847-13.272-5.248-20.375-6.875l-2.195-.509c-1.695-.366-3.406-.656-5.118-.929l-1 1 1.285 1.984c3.187 4.96 6.26 9.94 9.152 15.079 4.272 7.377 9.198 13.877 15.563 19.562 2.534 2.453 3.498 4.01 3.688 7.563C387 446 387 446 385.438 448.5c-3.544 2.18-5.329 2.253-9.438 1.5-3.05-1.969-5.484-4.397-8-7l-2.004-2.012c-6.528-6.91-11.234-14.93-15.773-23.242-6.285-11.387-13.682-17.402-26.168-21.363-11.763-2.192-22.722.418-32.676 6.773-7.308 5.664-11.297 13.411-15.469 21.469-4.967 8.776-12.773 20.806-21.91 25.375-3.799.352-6.144.527-9.437-1.5-1.724-2.757-2.492-4.954-2.34-8.234 1.44-4.2 4.932-6.764 8.12-9.72 6.748-6.469 11.056-14.776 15.462-22.925 2.102-3.856 4.321-7.267 7.195-10.621-12.466 2.069-24.26 5.503-35.797 10.695-3.686 1.502-5.44 1.502-9.203.305-2.833-1.759-3.029-3.104-3.937-6.375C224 398 224 398 225.418 395.527c3.53-3.456 7.255-4.863 11.832-6.59l2.698-1.043c17.914-6.759 35.867-9.215 54.939-9.195M254 296c10.914 6.812 18.649 19.23 24.688 30.313 6.675 12.156 13.84 18.87 27.332 23.359 10.689 1.77 21.217.444 30.515-5.215 7.117-5.192 11.394-11.42 15.528-19.07 3.42-6.311 6.959-12.097 11.625-17.574l1.33-1.564c3.926-4.448 7.771-8.59 13.545-10.312 3.437.063 3.437.063 6.375 1.5 2.276 2.828 2.976 4.785 2.734 8.438-1.12 3.54-3.634 5.443-6.328 7.89-7.367 7.024-12.488 15.819-17.25 24.715-2.063 3.833-4.243 7.195-7.094 10.52 11.661-1.326 23.074-4.873 33.781-9.66 4.32-1.798 6.593-1.947 11.219-1.34 2.563 2.063 2.563 2.063 4 5 .063 3.563.063 3.563-1 7-16.427 15.644-47.716 17.492-69.187 17.398q-2.52.003-5.04.01-5.234.005-10.467-.017c-4.417-.017-8.834-.007-13.25.01-3.46.012-6.92.008-10.379 0q-2.439-.004-4.879.008c-15.33.052-30.271-1.603-44.798-6.784l-2.671-.925C227.45 353.736 227.45 353.736 224 348c.12-3.397.419-5.94 2.063-8.937 3.135-1.72 6.468-1.393 9.937-1.063 3.395 1.137 3.395 1.137 6.813 2.688 6.027 2.607 12.08 4.539 18.437 6.187l2.491.651c3.211.812 5.93 1.474 9.259 1.474l-1.25-1.695a146 146 0 0 1-9.625-15.243c-4.435-8-9.785-15.192-16.687-21.25-2.44-2.815-2.882-3.44-3.125-6.937C243 300 243 300 245.125 297.5c3.376-1.761 5.11-1.892 8.875-1.5M175.559 144.664l5.032-.02q5.253-.017 10.506-.015 5.317 0 10.632-.04c29.376-.224 55.309 1.665 82.271 14.411-1.545 5.48-4.155 10.114-7 15l-2.832-1.137c-7.723-3.032-15.451-5.635-23.48-7.738l-2.478-.651c-3.137-.798-5.96-1.474-9.21-1.474l1.25 1.695a146 146 0 0 1 9.625 15.243c4.435 8 9.785 15.192 16.688 21.25 2.44 2.815 2.88 3.44 3.125 6.937C269 212 269 212 266.875 214.5c-3.376 1.761-5.11 1.892-8.875 1.5-10.91-6.81-18.654-19.23-24.687-30.312-5.19-9.521-10.194-16.145-20.313-20.688l-2.047-.969c-8.655-3.514-19.021-3.338-27.828-.469-11.125 4.712-17.574 12.64-23.138 23-5.77 10.702-12.92 21.305-22.987 28.438-4.123 1.178-6.059 1.46-9.937-.437-2.277-2.828-2.977-4.785-2.735-8.438 1.12-3.54 3.634-5.443 6.328-7.89 7.367-7.024 12.488-15.819 17.25-24.715 2.063-3.833 4.243-7.195 7.094-10.52-11.661 1.326-23.074 4.873-33.781 9.66-4.32 1.798-6.593 1.947-11.219 1.34-2.562-2.062-2.562-2.062-4-5-.062-3.562-.062-3.562 1-7 7.586-7.172 19.259-9.951 29.125-12.75l2.093-.601c12.38-3.36 24.606-3.973 37.34-3.985"/></svg>