<?xml version="1.0" encoding="UTF-8"?>
<svg version="1.1" xmlns="http://www.w3.org/2000/svg" width="512" height="512">
<path d="M0 0 C2.18639962 0.75000879 4.32554524 1.57518937 6.46893311 2.44046021 C7.26414871 2.74906479 8.05936432 3.05766937 8.87867737 3.37562561 C11.44288628 4.37475138 13.99890025 5.39311972 16.55487061 6.41311646 C18.32283557 7.10881953 20.09114803 7.80364016 21.85980225 8.49758911 C25.32976209 9.86220502 28.79612123 11.23539972 32.25946045 12.61672974 C36.10674137 14.1510499 39.96314789 15.66034431 43.82440186 17.15921021 C58.81948499 23.04117538 72.76669968 29.7397564 84.92987061 40.47561646 C85.77033936 41.19620239 86.61080811 41.91678833 87.47674561 42.65921021 C97.51764234 51.43738811 105.82986717 61.14086833 112.37908936 72.78421021 C112.81108643 73.54604614 113.2430835 74.30788208 113.68817139 75.09280396 C114.54183641 76.61156703 115.38072467 78.13875422 116.20281982 79.67483521 C118.77089449 84.2570246 120.74703405 86.70400342 125.92987061 88.47561646 C130.17856863 88.47561646 132.18083098 88.12557052 135.41033936 85.32327271 C138.0579062 82.33090645 139.80456864 79.43531822 141.67987061 75.91311646 C150.85082135 59.19498263 150.85082135 59.19498263 157.92987061 54.47561646 C161.80325814 54.05306509 164.04585669 53.90894087 167.36737061 56.03811646 C169.52550636 59.40480823 169.29545603 61.52064684 168.92987061 65.47561646 C167.27752686 68.44046021 167.27752686 68.44046021 164.99237061 71.41311646 C161.29967007 76.35873685 158.25690903 81.40011165 155.36737061 86.85061646 C150.72379017 95.40495128 145.55720152 101.4878241 135.92987061 104.47561646 C127.10502746 106.22587701 119.77766667 105.51964402 112.11737061 100.66311646 C106.50739942 96.85160597 103.47241008 91.82544041 100.27801514 85.99124146 C83.61098507 55.66340406 59.48017206 41.46957524 27.92987061 29.47561646 C25.48929665 28.53673257 23.04919779 27.59661282 20.60955811 26.65530396 C15.12669382 24.54062805 9.63903148 22.438937 4.14691162 20.34841919 C1.92987061 19.47561646 1.92987061 19.47561646 -0.07012939 18.47561646 C-0.19541016 19.32792847 -0.32069092 20.18024048 -0.44976807 21.05838013 C-0.92730974 24.2387427 -1.4232941 27.41553218 -1.93170166 30.59109497 C-2.14739966 31.9623526 -2.3558481 33.33477202 -2.55670166 34.70828247 C-2.84776426 36.68966417 -3.16766211 38.66674135 -3.48809814 40.64358521 C-3.67138672 41.83234253 -3.85467529 43.02109985 -4.04351807 44.24588013 C-5.70428571 49.47068279 -9.4411808 52.30928431 -13.96075439 55.15921021 C-14.66643555 55.60933472 -15.3721167 56.05945923 -16.09918213 56.52322388 C-16.83209473 56.98188843 -17.56500732 57.44055298 -18.32012939 57.91311646 C-19.83742631 58.87607564 -21.3543567 59.83961259 -22.87091064 60.80374146 C-23.59488037 61.26200317 -24.3188501 61.72026489 -25.0647583 62.19241333 C-28.26142486 64.23790632 -31.38725104 66.38477142 -34.50372314 68.54983521 C-36.07012939 69.47561646 -36.07012939 69.47561646 -38.07012939 69.47561646 C-37.82778564 70.42178833 -37.58544189 71.36796021 -37.33575439 72.34280396 C-36.2233712 76.71459853 -35.14422279 81.09428128 -34.07012939 85.47561646 C-33.8727417 86.27145142 -33.675354 87.06728638 -33.47198486 87.88723755 C-32.88661097 90.26775803 -32.31993421 92.65205308 -31.75762939 95.03811646 C-31.57426025 95.77465454 -31.39089111 96.51119263 -31.20196533 97.27005005 C-30.00009848 102.48169554 -29.29858264 107.33516704 -32.06158447 112.23318481 C-33.35203136 114.10449913 -34.7187029 115.88341792 -36.13262939 117.66311646 C-37.12897327 118.97574178 -38.12374688 120.28956039 -39.11700439 121.60452271 C-39.86047119 122.57736206 -39.86047119 122.57736206 -40.61895752 123.56985474 C-42.75923778 126.38059291 -44.84271607 129.21549428 -46.88262939 132.10061646 C-47.54907471 133.02100708 -48.21552002 133.94139771 -48.90216064 134.88967896 C-50.32889159 137.37767511 -50.32889159 137.37767511 -49.59356689 139.83499146 C-47.53883878 143.39652019 -45.25664713 146.74566224 -42.88262939 150.10061646 C-41.8936465 151.53112121 -40.90536693 152.96211246 -39.91778564 154.39358521 C-38.22346393 156.8359169 -36.50578612 159.24932824 -34.75372314 161.65139771 C-34.11563721 162.56276489 -33.47755127 163.47413208 -32.82012939 164.41311646 C-31.97708252 165.57133911 -31.97708252 165.57133911 -31.11700439 166.75296021 C-28.19953399 174.34056047 -32.3775459 184.81046941 -34.13262939 192.41311646 C-34.68783357 194.83848208 -35.24131209 197.2642436 -35.79278564 199.69046021 C-36.03778809 200.7538562 -36.28279053 201.8172522 -36.53521729 202.91287231 C-37.13823703 205.36558862 -37.13823703 205.36558862 -37.07012939 207.47561646 C-34.88701309 209.1104181 -34.88701309 209.1104181 -32.06622314 210.77639771 C-31.01499268 211.42415161 -29.96376221 212.07190552 -28.88067627 212.73928833 C-27.7675708 213.41540161 -26.65446533 214.09151489 -25.50762939 214.78811646 C-21.34997987 217.33205513 -17.20107091 219.88850439 -13.07012939 222.47561646 C-12.31844482 222.94257935 -11.56676025 223.40954224 -10.79229736 223.89065552 C-8.11378897 225.65510822 -6.29602199 227.02812036 -4.83575439 229.92092896 C-3.58964674 236.39691268 -2.51009051 242.89041873 -1.49200439 249.40530396 C-1.35455811 250.28049683 -1.21711182 251.1556897 -1.07550049 252.05740356 C-0.73963947 254.19669223 -0.40478145 256.33613833 -0.07012939 258.47561646 C6.63894553 255.93017491 13.34184387 253.36894325 20.04095459 250.7973938 C22.31369718 249.92700911 24.58775757 249.06005646 26.86322021 248.19680786 C50.41515136 239.53301086 50.41515136 239.53301086 71.36737061 225.97561646 C71.94462891 225.50478638 72.52188721 225.0339563 73.11663818 224.54885864 C74.73831703 223.20989544 76.33845048 221.85031448 77.92987061 220.47561646 C79.05135498 219.50881958 79.05135498 219.50881958 80.19549561 218.52249146 C89.10273129 210.19458817 95.89218149 199.68374658 101.55487061 188.97561646 C105.49888429 181.59246505 109.79531202 176.54795564 117.74627686 173.33889771 C125.44183201 171.25212753 134.1797233 171.16475564 141.49237061 174.53811646 C149.47121729 179.31492599 152.9463519 186.20251876 157.25775146 194.13674927 C171.58756928 219.97028423 194.8166814 235.05342125 221.82781982 245.29837036 C224.75260511 246.40834318 227.67266765 247.53012174 230.59165955 248.65522766 C233.91088268 249.93352077 237.23280083 251.20474382 240.55487061 252.47561646 C241.20577667 252.72526154 241.85668274 252.97490662 242.52731323 253.2321167 C244.38147594 253.9418916 246.23766417 254.64636833 248.09393311 255.35061646 C249.70969238 255.96549927 249.70969238 255.96549927 251.35809326 256.59280396 C253.79196601 257.58384086 253.79196601 257.58384086 255.92987061 257.47561646 C256.05515137 256.65359741 256.18043213 255.83157837 256.30950928 254.98464966 C256.78718748 251.91602755 257.28315843 248.85107321 257.79144287 245.78738403 C258.11273288 243.81656464 258.41306274 241.84236523 258.71307373 239.86819458 C258.92254639 238.62102661 259.13201904 237.37385864 259.34783936 236.08889771 C259.53112793 234.94203491 259.7144165 233.79517212 259.90325928 232.61355591 C261.65493686 227.25937947 265.63748389 224.41823381 270.29315186 221.53811646 C271.09817139 221.03538208 271.90319092 220.53264771 272.73260498 220.01467896 C273.56082764 219.50678833 274.38905029 218.99889771 275.24237061 218.47561646 C276.0589917 217.96772583 276.87561279 217.45983521 277.71697998 216.93655396 C279.33258256 215.93243442 280.9498974 214.93106389 282.56903076 213.93264771 C286.03207299 211.79537407 289.48109321 209.63580684 292.92987061 207.47561646 C292.13984072 203.49612304 291.34754676 199.51708353 290.55487061 195.53811646 C290.33315186 194.4211438 290.11143311 193.30417114 289.88299561 192.15335083 C289.66385498 191.05442505 289.44471436 189.95549927 289.21893311 188.82327271 C288.89650635 187.19736206 288.89650635 187.19736206 288.56756592 185.53860474 C288.0078253 182.85004969 287.36827518 180.19799007 286.70330811 177.53421021 C285.52352974 172.11450696 286.15329719 168.44967139 289.15252686 163.77639771 C290.0885459 162.43948937 291.03568854 161.11031726 291.99237061 159.78811646 C292.48318115 159.08839722 292.9739917 158.38867798 293.47967529 157.66775513 C295.74798305 154.4493998 298.06209407 151.27623512 300.47283936 148.16311646 C301.56531982 146.73999146 301.56531982 146.73999146 302.67987061 145.28811646 C303.33471436 144.46956177 303.98955811 143.65100708 304.66424561 142.80764771 C306.29217531 139.80803648 305.8581488 138.70569811 304.92987061 135.47561646 C303.74524583 133.37013652 303.74524583 133.37013652 302.19940186 131.40139771 C301.64591064 130.65623901 301.09241943 129.91108032 300.52215576 129.14334106 C299.64116211 127.97750488 299.64116211 127.97750488 298.74237061 126.78811646 C297.5565151 125.17258673 296.37289648 123.55541252 295.19158936 121.93655396 C294.3434668 120.7778479 294.3434668 120.7778479 293.47821045 119.59573364 C291.62678235 117.06060252 289.79166535 114.52862208 288.05487061 111.91311646 C287.37811279 110.92118286 287.37811279 110.92118286 286.68768311 109.90921021 C284.33204976 102.34447012 288.19928063 92.53091506 289.99237061 85.10061646 C290.54871905 82.78101263 291.10224344 80.46072908 291.65252686 78.13967896 C292.02003052 76.61528198 292.02003052 76.61528198 292.3949585 75.06008911 C293.03120858 72.42586819 293.03120858 72.42586819 292.92987061 69.47561646 C291.43891382 68.15784555 291.43891382 68.15784555 289.41424561 67.05764771 C288.28696045 66.38862427 288.28696045 66.38862427 287.13690186 65.70608521 C286.32608154 65.23815552 285.51526123 64.77022583 284.67987061 64.28811646 C283.02779207 63.30678702 281.37675314 62.32370535 279.72674561 61.33889771 C278.91141357 60.85501587 278.09608154 60.37113403 277.25604248 59.87258911 C274.09771634 57.97586974 271.00861842 55.99932996 267.92987061 53.97561646 C267.00174561 53.36717896 266.07362061 52.75874146 265.11737061 52.13186646 C261.02475224 49.0331697 260.47447358 45.90607061 259.64080811 41.05764771 C259.42166748 39.80403442 259.20252686 38.55042114 258.97674561 37.25881958 C258.7526331 35.93527797 258.52867676 34.61170991 258.30487061 33.28811646 C258.07375307 31.95271677 257.8419896 30.6174287 257.60955811 29.28225708 C257.04329041 26.01442059 256.48367338 22.74558452 255.92987061 19.47561646 C247.28843577 21.79677421 239.00132233 25.00457316 230.67352295 28.243927 C228.33375607 29.15190704 225.98947523 30.04742318 223.64471436 30.94241333 C212.45196188 35.25844867 200.9520284 39.79417793 190.92987061 46.47561646 C187.37961673 46.79836681 184.83278456 46.87955165 181.55487061 45.41311646 C179.05996701 42.43842371 178.86465363 40.32341788 178.92987061 36.47561646 C182.24383069 31.70890783 185.79264976 28.92756046 190.96893311 26.28811646 C192.05206284 25.72628662 192.05206284 25.72628662 193.15707397 25.15310669 C204.19441468 19.62729869 215.86831819 15.48922163 227.41821289 11.18112183 C230.59723367 9.99234433 233.77104699 8.78981809 236.94549561 7.58889771 C259.8440035 -1.05823154 259.8440035 -1.05823154 265.92987061 -0.52438354 C270.02352323 2.29382134 270.68299535 5.49519609 271.54608154 10.12527466 C271.76699463 11.41244385 271.76699463 11.41244385 271.99237061 12.72561646 C272.26162354 14.06209229 272.26162354 14.06209229 272.53631592 15.42556763 C273.35702092 19.59500226 274.01502798 23.56814597 274.00408936 27.82327271 C274.20009286 32.2442407 274.4037038 35.80169729 276.92987061 39.47561646 C283.2452517 45.01321541 290.718569 48.95586201 298.0758667 52.92630005 C300.61261201 54.30339036 303.10619658 55.71803262 305.57440186 57.21389771 C306.18259766 57.58168335 306.79079346 57.94946899 307.41741943 58.32839966 C308.92987061 59.47561646 308.92987061 59.47561646 310.92987061 62.47561646 C311.25694077 67.93944358 310.66348313 72.55479532 309.36346436 77.89749146 C309.12684837 78.89839813 309.12684837 78.89839813 308.88545227 79.91952515 C308.21866141 82.73917347 307.5311142 85.55364766 306.84515381 88.36868286 C306.34383499 90.43908918 305.85339214 92.51186544 305.36346436 94.58499146 C305.06496582 95.81185669 304.76646729 97.03872192 304.45892334 98.30276489 C303.69940469 102.85777385 304.51492049 105.20714069 307.11737061 108.90921021 C307.56491699 109.55180786 308.01246338 110.19440552 308.47357178 110.85647583 C309.1944397 111.87451294 309.1944397 111.87451294 309.92987061 112.91311646 C310.41882813 113.61887817 310.90778564 114.32463989 311.41156006 115.05178833 C313.77447486 118.45505956 316.1734044 121.82198892 318.66033936 125.13577271 C319.07606201 125.70175171 319.49178467 126.26773071 319.92010498 126.8508606 C321.0485051 128.38216215 322.19754488 129.89819273 323.34783936 131.41311646 C325.31244227 135.21619962 325.81020577 138.32808356 324.92987061 142.47561646 C323.63119288 145.28004383 321.91370446 147.64111274 320.05487061 150.10061646 C319.56542969 150.78865356 319.07598877 151.47669067 318.57171631 152.18557739 C316.11893226 155.61451358 313.57295335 158.94036262 310.90252686 162.20217896 C305.97857649 168.09162035 305.97857649 168.09162035 303.57830811 175.20608521 C304.07053598 178.42414103 304.97404955 181.36010284 305.92987061 184.47561646 C306.61639238 187.36763603 307.2528585 190.26783946 307.88079834 193.17312622 C308.32284024 195.21586894 308.77891855 197.25563554 309.25042725 199.29177856 C311.62720097 209.76568169 311.62720097 209.76568169 310.92987061 214.47561646 C307.27382553 219.34787125 301.86908672 222.26286839 296.74237061 225.41311646 C295.94250732 225.91262817 295.14264404 226.41213989 294.31854248 226.92678833 C293.11488037 227.67605591 293.11488037 227.67605591 291.88690186 228.44046021 C291.08019043 228.95527954 290.273479 229.47009888 289.44232178 230.0005188 C286.92987061 231.47561646 286.92987061 231.47561646 284.20843506 232.61087036 C281.21949494 233.96454812 279.22850608 235.11765101 276.92987061 237.47561646 C274.90971209 242.86131585 274.20215766 248.29122746 273.49237061 253.97561646 C273.1737631 256.22929959 272.84263811 258.48056245 272.50260925 260.73110962 C272.29601914 262.12471044 272.10358242 263.52051256 271.92805481 264.91836548 C271.31013275 269.43788602 270.27014315 274.13534391 266.92987061 277.47561646 C259.97924024 277.93665815 254.9488321 276.82245816 248.53143311 274.25686646 C247.21977676 273.75262146 247.21977676 273.75262146 245.88162231 273.2381897 C243.10037744 272.16464321 240.32786091 271.07028162 237.55487061 269.97561646 C235.7337649 269.2711745 233.91215311 268.56803941 232.09002686 267.86624146 C223.18058719 264.41833661 214.32255122 260.8522851 205.51190186 257.15921021 C204.74733673 256.83936157 203.98277161 256.51951294 203.19503784 256.18997192 C176.25282557 244.78838573 155.22677987 225.37116262 140.95330811 199.98733521 C140.34744873 198.91096802 139.74158936 197.83460083 139.11737061 196.72561646 C138.59530029 195.76139771 138.07322998 194.79717896 137.53533936 193.80374146 C135.79817253 191.28463822 134.797684 190.44432441 131.92987061 189.47561646 C126.43599753 189.03959478 123.42899178 189.00385366 118.92987061 192.47561646 C117.51819134 194.79111477 116.33340284 196.97896534 115.17987061 199.41311646 C105.85884393 217.89673243 90.76370183 234.55086378 73.24237061 245.66311646 C72.66865723 246.03049927 72.09494385 246.39788208 71.50384521 246.77639771 C56.89855209 255.66505595 40.635384 261.43542693 24.67987061 267.35061646 C22.63144288 268.1155706 20.58326428 268.88119222 18.53533936 269.64749146 C15.66485652 270.72148183 12.79407323 271.79455012 9.92126465 272.86230469 C6.58753604 274.10160502 3.26262403 275.34010105 -0.03155518 276.68167114 C-2.34318386 277.58196054 -4.21988608 277.8080865 -6.69512939 277.85061646 C-7.45052002 277.87897583 -8.20591064 277.90733521 -8.98419189 277.93655396 C-11.07012939 277.47561646 -11.07012939 277.47561646 -12.71856689 276.03030396 C-14.71492101 272.25684848 -15.3146977 268.40167111 -16.07012939 264.22561646 C-16.24979248 263.33753296 -16.42945557 262.44944946 -16.61456299 261.53445435 C-17.44719819 257.34162179 -18.14533294 253.25969765 -18.35919189 248.98733521 C-18.69200346 244.11107201 -19.00986156 239.45964584 -22.71954346 235.88723755 C-27.07251303 232.65996321 -31.82689432 230.21313253 -36.64581299 227.76223755 C-40.4765444 225.72921091 -44.04451718 223.3419246 -47.63262939 220.91311646 C-48.269104 220.49497681 -48.90557861 220.07683716 -49.56134033 219.64602661 C-53.94519835 216.72547854 -53.94519835 216.72547854 -55.07012939 214.47561646 C-55.32539719 209.43164911 -54.69551132 205.07996762 -53.50372314 200.18655396 C-53.1800591 198.81938926 -52.85649431 197.45220106 -52.53302002 196.08499146 C-52.0202815 193.96019122 -51.50412491 191.83627083 -50.9854126 189.71292114 C-50.48285586 187.64359792 -49.99280758 185.57159578 -49.50372314 183.49905396 C-49.20522461 182.27106079 -48.90672607 181.04306763 -48.59918213 179.77786255 C-47.83342399 174.99814651 -48.47347214 171.86831624 -51.25762939 167.94436646 C-51.70517578 167.30499146 -52.15272217 166.66561646 -52.61383057 166.00686646 C-53.33469849 165.00139771 -53.33469849 165.00139771 -54.07012939 163.97561646 C-54.55908691 163.27436646 -55.04804443 162.57311646 -55.55181885 161.85061646 C-57.91628933 158.46656147 -60.32308377 155.12150671 -62.80059814 151.81936646 C-63.2163208 151.25282349 -63.63204346 150.68628052 -64.06036377 150.10256958 C-65.18812263 148.57006855 -66.33744953 147.05350658 -67.48809814 145.53811646 C-69.48229803 141.6777394 -70.10638624 138.66555612 -69.07012939 134.47561646 C-67.23034962 130.91513411 -64.91998881 127.79265434 -62.50762939 124.60061646 C-61.89854736 123.76659302 -61.28946533 122.93256958 -60.66192627 122.07327271 C-58.14568678 118.62775535 -55.61641861 115.19428357 -53.03448486 111.79763794 C-52.39269287 110.92953491 -51.75090088 110.06143188 -51.08966064 109.16702271 C-50.21144653 108.00215332 -50.21144653 108.00215332 -49.31549072 106.81375122 C-46.78160505 102.0564442 -48.74716933 97.4139941 -50.07012939 92.47561646 C-50.7391726 89.57784295 -51.38021763 86.67490144 -52.01446533 83.76931763 C-52.46127327 81.73031567 -52.91988949 79.69385825 -53.39141846 77.66043091 C-55.76647114 67.17887387 -55.76647114 67.17887387 -55.07012939 62.47561646 C-51.51623235 57.76068532 -46.46236034 55.05192878 -41.44512939 52.10061646 C-39.1435505 50.72844464 -36.84732748 49.353191 -34.57110596 47.9392395 C-32.07012939 46.47561646 -32.07012939 46.47561646 -29.15509033 45.14675903 C-24.38262723 42.74197755 -21.67036467 41.01502846 -19.68487549 35.92288208 C-18.63850963 31.63447405 -18.09482094 27.29042175 -17.57012939 22.91311646 C-17.25889236 20.66607204 -16.93396252 18.42163281 -16.6005249 16.17778015 C-16.30525823 14.14686765 -16.04504726 12.11094867 -15.78692627 10.07498169 C-15.05473561 6.39831723 -13.98925175 3.68494323 -12.07012939 0.47561646 C-8.3379081 -1.39049419 -3.96757669 -1.00502506 0 0 Z " fill="#000000" transform="translate(187.07012939453125,234.52438354492188)"/>
<path d="M0 0 C4.82199027 0.03888702 8.81937272 1.44418859 13.25 3.1875 C13.90436035 3.43959229 14.5587207 3.69168457 15.23291016 3.95141602 C18.94222023 5.49271654 21.51230017 6.80211929 23.375 10.4375 C23.58984375 12.47265625 23.58984375 12.47265625 23.3125 14.5 C23.23902344 15.17160156 23.16554688 15.84320313 23.08984375 16.53515625 C22.08342548 19.21343876 20.82824427 19.99443036 18.375 21.4375 C15.578125 21.51171875 15.578125 21.51171875 12.625 21.125 C11.64015625 21.00511719 10.6553125 20.88523437 9.640625 20.76171875 C8.89296875 20.65472656 8.1453125 20.54773438 7.375 20.4375 C7.24971924 21.25951904 7.12443848 22.08153809 6.99536133 22.9284668 C6.51768312 25.99708891 6.02171217 29.06204325 5.51342773 32.12573242 C5.19213772 34.09655182 4.89180786 36.07075122 4.59179688 38.04492188 C4.27758789 39.91567383 4.27758789 39.91567383 3.95703125 41.82421875 C3.77374268 42.97108154 3.5904541 44.11794434 3.40161133 45.29956055 C1.64993375 50.65373699 -2.33261328 53.49488264 -6.98828125 56.375 C-7.79330078 56.87773438 -8.59832031 57.38046875 -9.42773438 57.8984375 C-10.25595703 58.40632813 -11.08417969 58.91421875 -11.9375 59.4375 C-12.75412109 59.94539063 -13.57074219 60.45328125 -14.41210938 60.9765625 C-16.02771195 61.98068203 -17.64502679 62.98205257 -19.26416016 63.98046875 C-22.72720239 66.11774238 -26.1762226 68.27730962 -29.625 70.4375 C-28.83497011 74.41699341 -28.04267615 78.39603292 -27.25 82.375 C-27.02828125 83.49197266 -26.8065625 84.60894531 -26.578125 85.75976562 C-26.35898437 86.85869141 -26.13984375 87.95761719 -25.9140625 89.08984375 C-25.69911133 90.17378418 -25.48416016 91.25772461 -25.26269531 92.37451172 C-24.7029547 95.06306676 -24.06340457 97.71512639 -23.3984375 100.37890625 C-22.21865913 105.79860949 -22.84842659 109.46344506 -25.84765625 114.13671875 C-26.78367529 115.47362708 -27.73081794 116.80279919 -28.6875 118.125 C-29.17831055 118.82471924 -29.66912109 119.52443848 -30.17480469 120.24536133 C-32.44311245 123.46371666 -34.75722346 126.63688133 -37.16796875 129.75 C-37.89628906 130.69875 -38.62460937 131.6475 -39.375 132.625 C-40.02984375 133.44355469 -40.6846875 134.26210937 -41.359375 135.10546875 C-42.98730471 138.10507997 -42.55327819 139.20741835 -41.625 142.4375 C-40.44037522 144.54297993 -40.44037522 144.54297993 -38.89453125 146.51171875 C-38.34104004 147.25687744 -37.78754883 148.00203613 -37.21728516 148.76977539 C-36.3362915 149.93561157 -36.3362915 149.93561157 -35.4375 151.125 C-34.2516445 152.74052973 -33.06802587 154.35770393 -31.88671875 155.9765625 C-31.32130371 156.7490332 -30.75588867 157.52150391 -30.17333984 158.31738281 C-28.32191175 160.85251394 -26.48679475 163.38449437 -24.75 166 C-24.07324219 166.99193359 -24.07324219 166.99193359 -23.3828125 168.00390625 C-21.02717915 175.56864633 -24.89441002 185.3822014 -26.6875 192.8125 C-27.24384845 195.13210383 -27.79737284 197.45238737 -28.34765625 199.7734375 C-28.59265869 200.78970215 -28.83766113 201.8059668 -29.09008789 202.85302734 C-29.72633798 205.48724827 -29.72633798 205.48724827 -29.625 208.4375 C-28.13404322 209.7552709 -28.13404322 209.7552709 -26.109375 210.85546875 C-25.35785156 211.30148438 -24.60632812 211.7475 -23.83203125 212.20703125 C-22.61580078 212.90892578 -22.61580078 212.90892578 -21.375 213.625 C-19.72292146 214.60632943 -18.07188253 215.58941111 -16.421875 216.57421875 C-15.60654297 217.05810059 -14.79121094 217.54198242 -13.95117188 218.04052734 C-10.79284573 219.93724672 -7.70374782 221.9137865 -4.625 223.9375 C-3.696875 224.5459375 -2.76875 225.154375 -1.8125 225.78125 C2.28011836 228.87994676 2.83039702 232.00704584 3.6640625 236.85546875 C3.88320312 238.10908203 4.10234375 239.36269531 4.328125 240.65429688 C4.5522375 241.97783849 4.77619385 243.30140655 5 244.625 C5.23111753 245.96039969 5.46288101 247.29568776 5.6953125 248.63085938 C6.2615802 251.89869587 6.82119722 255.16753194 7.375 258.4375 C16.01643483 256.11634225 24.30354827 252.9085433 32.63134766 249.66918945 C34.97111454 248.76120942 37.31539538 247.86569328 39.66015625 246.97070312 C47.30071637 244.02531075 54.79267548 240.89851943 62.12890625 237.25390625 C62.76821075 236.93738602 63.40751526 236.62086578 64.06619263 236.29475403 C70.42795224 233.05188194 75.89338593 229.0004078 81.375 224.4375 C82.29796875 223.68984375 83.2209375 222.9421875 84.171875 222.171875 C94.44936393 213.40407371 101.72077878 202.75803897 108.0625 190.9375 C112.65538469 182.41205923 117.79483936 176.4106533 127.375 173.4375 C136.19984314 171.68723944 143.52720394 172.39347243 151.1875 177.25 C156.79747119 181.06151048 159.83246052 186.08767605 163.02685547 191.921875 C179.69388553 222.24971239 203.82469854 236.44354122 235.375 248.4375 C237.81557396 249.37638389 240.25567281 250.31650363 242.6953125 251.2578125 C248.17817678 253.37248841 253.66583912 255.47417946 259.15795898 257.56469727 C261.375 258.4375 261.375 258.4375 263.375 259.4375 C263.50028076 258.58518799 263.62556152 257.73287598 263.75463867 256.85473633 C264.23218035 253.67437376 264.7281647 250.49758427 265.23657227 247.32202148 C265.45227027 245.95076386 265.6607187 244.57834443 265.86157227 243.20483398 C266.15263487 241.22345228 266.47253271 239.24637511 266.79296875 237.26953125 C266.97625732 236.08077393 267.1595459 234.8920166 267.34838867 233.66723633 C269.00915632 228.44243366 272.74605141 225.60383214 277.265625 222.75390625 C277.97130615 222.30378174 278.6769873 221.85365723 279.40405273 221.38989258 C280.13696533 220.93122803 280.86987793 220.47256348 281.625 220 C283.14229691 219.03704081 284.65922731 218.07350386 286.17578125 217.109375 C286.89975098 216.65111328 287.6237207 216.19285156 288.36962891 215.72070312 C291.56629547 213.67521013 294.69212165 211.52834504 297.80859375 209.36328125 C299.375 208.4375 299.375 208.4375 301.375 208.4375 C301.13265625 207.49132812 300.8903125 206.54515625 300.640625 205.5703125 C299.52824181 201.19851793 298.4490934 196.81883517 297.375 192.4375 C297.1776123 191.64166504 296.98022461 190.84583008 296.77685547 190.02587891 C296.19148158 187.64535842 295.62480482 185.26106337 295.0625 182.875 C294.87913086 182.13846191 294.69576172 181.40192383 294.50683594 180.64306641 C293.30496909 175.43142091 292.60345324 170.57794942 295.36645508 165.67993164 C296.65690196 163.80861733 298.0235735 162.02969853 299.4375 160.25 C300.43384388 158.93737467 301.42861749 157.62355606 302.421875 156.30859375 C302.91751953 155.66003418 303.41316406 155.01147461 303.92382812 154.34326172 C306.06410838 151.53252355 308.14758667 148.69762217 310.1875 145.8125 C310.85394531 144.89210937 311.52039063 143.97171875 312.20703125 143.0234375 C313.63376219 140.53544134 313.63376219 140.53544134 312.8984375 138.078125 C310.84370939 134.51659627 308.56151774 131.16745422 306.1875 127.8125 C305.19851711 126.38199525 304.21023754 124.95100399 303.22265625 123.51953125 C301.52833454 121.07719955 299.81065672 118.66378822 298.05859375 116.26171875 C297.42050781 115.35035156 296.78242188 114.43898438 296.125 113.5 C295.56296875 112.72785156 295.0009375 111.95570312 294.421875 111.16015625 C291.5044046 103.57255598 295.68241651 93.10264705 297.4375 85.5 C297.99270418 83.07463438 298.54618269 80.64887285 299.09765625 78.22265625 C299.34265869 77.15926025 299.58766113 76.09586426 299.84008789 75.00024414 C300.44310764 72.54752784 300.44310764 72.54752784 300.375 70.4375 C298.19188369 68.80269835 298.19188369 68.80269835 295.37109375 67.13671875 C294.31986328 66.48896484 293.26863281 65.84121094 292.18554688 65.17382812 C291.07244141 64.49771484 289.95933594 63.82160156 288.8125 63.125 C284.65485047 60.58106133 280.50594152 58.02461207 276.375 55.4375 C275.62331543 54.97053711 274.87163086 54.50357422 274.09716797 54.02246094 C271.41865957 52.25800824 269.6008926 50.8849961 268.140625 47.9921875 C266.89451734 41.51620377 265.81496112 35.02269773 264.796875 28.5078125 C264.59070557 27.19502319 264.59070557 27.19502319 264.38037109 25.85571289 C264.04451007 23.71642422 263.70965206 21.57697812 263.375 19.4375 C256.66592508 21.98294154 249.96302674 24.54417321 243.26391602 27.11572266 C240.99117343 27.98610735 238.71711304 28.85306 236.44165039 29.71630859 C212.88971925 38.3801056 212.88971925 38.3801056 191.9375 51.9375 C191.3602417 52.40833008 190.7829834 52.87916016 190.18823242 53.36425781 C188.56655357 54.70322102 186.96642013 56.06280197 185.375 57.4375 C184.25351562 58.40429688 184.25351562 58.40429688 183.109375 59.390625 C174.20213931 67.71852829 167.41268912 78.22936988 161.75 88.9375 C157.80598631 96.3206514 153.50955859 101.36516082 145.55859375 104.57421875 C137.86303859 106.66098892 129.1251473 106.74836082 121.8125 103.375 C113.83181098 98.5970875 110.35996031 91.70812414 106.04492188 83.77416992 C92.52853542 59.42281945 70.44640372 43.17944174 44.66796875 33.54296875 C42.375 32.4375 42.375 32.4375 40.375 29.4375 C39.8940571 25.75027109 40.14582501 23.87675206 41.875 20.5625 C44.79320345 18.08202706 46.44834791 18.06414523 50.19482422 18.17041016 C53.83827142 18.61676304 56.89598442 19.99631018 60.1875 21.5625 C60.88327148 21.88234863 61.57904297 22.20219727 62.29589844 22.53173828 C64.3329345 23.47968924 66.35571654 24.45238294 68.375 25.4375 C69.38433594 25.92734375 70.39367187 26.4171875 71.43359375 26.921875 C93.3647077 38.25348105 110.38384534 56.64248927 122.3515625 77.92578125 C123.26035156 79.54033203 123.26035156 79.54033203 124.1875 81.1875 C124.70957031 82.15171875 125.23164063 83.1159375 125.76953125 84.109375 C127.50669808 86.62847824 128.50718661 87.46879204 131.375 88.4375 C136.86887308 88.87352167 139.87587882 88.9092628 144.375 85.4375 C145.78667927 83.12200169 146.97146777 80.93415111 148.125 78.5 C153.86174844 67.12401547 161.67258019 57.690911 170.375 48.4375 C171.18130859 47.53451172 171.18130859 47.53451172 172.00390625 46.61328125 C188.80746803 28.54629377 213.74194266 19.74408398 236.25 11.4375 C238.53038527 10.58580549 240.810336 9.73294659 243.08984375 8.87890625 C248.05705831 7.01913805 253.02820266 5.17036897 258.00338745 3.33203125 C259.68957714 2.69602965 261.36477048 2.03053536 263.03152466 1.34521484 C265.48952181 0.39314146 267.37427463 0.10761556 270 0.0625 C270.75539063 0.03414062 271.51078125 0.00578125 272.2890625 -0.0234375 C274.375 0.4375 274.375 0.4375 276.0234375 1.8828125 C278.01979162 5.65626797 278.6195683 9.51144534 279.375 13.6875 C279.55466309 14.5755835 279.73432617 15.46366699 279.91943359 16.37866211 C280.7520688 20.57149467 281.45020355 24.6534188 281.6640625 28.92578125 C281.99687406 33.80204444 282.31473217 38.45347062 286.02441406 42.02587891 C290.37738364 45.25315325 295.13176493 47.69998392 299.95068359 50.15087891 C303.781415 52.18390555 307.34938779 54.57119186 310.9375 57 C311.57397461 57.41813965 312.21044922 57.8362793 312.86621094 58.26708984 C317.25006896 61.18763792 317.25006896 61.18763792 318.375 63.4375 C318.6302678 68.48146735 318.00038192 72.83314884 316.80859375 77.7265625 C316.4849297 79.0937272 316.16136492 80.4609154 315.83789062 81.828125 C315.32515211 83.95292523 314.80899551 86.07684562 314.2902832 88.20019531 C313.78772647 90.26951853 313.29767818 92.34152067 312.80859375 94.4140625 C312.51009521 95.64205566 312.21159668 96.87004883 311.90405273 98.13525391 C311.13829459 102.91496994 311.77834275 106.04480021 314.5625 109.96875 C315.01004639 110.608125 315.45759277 111.2475 315.91870117 111.90625 C316.63956909 112.91171875 316.63956909 112.91171875 317.375 113.9375 C317.86395752 114.63875 318.35291504 115.34 318.85668945 116.0625 C321.22115994 119.44655498 323.62795438 122.79160975 326.10546875 126.09375 C326.52119141 126.66029297 326.93691406 127.22683594 327.36523438 127.81054688 C328.49299324 129.34304791 329.64232013 130.85960987 330.79296875 132.375 C332.78716863 136.23537705 333.41125685 139.24756034 332.375 143.4375 C330.53522022 146.99798235 328.22485941 150.12046211 325.8125 153.3125 C324.89887695 154.56353516 324.89887695 154.56353516 323.96679688 155.83984375 C318.87489854 162.81224211 318.87489854 162.81224211 316.31298828 166.01660156 C312.36671712 171.06349544 312.36671712 171.06349544 311.24609375 177.21484375 C311.58715032 178.63134879 311.96915247 180.03818091 312.375 181.4375 C312.84972903 183.5836062 313.31928868 185.73085903 313.78515625 187.87890625 C314.61036924 191.46013178 315.44658736 195.03849129 316.29101562 198.61523438 C319.12340814 210.95294414 319.12340814 210.95294414 318.375 215.4375 C314.82110296 220.15243114 309.76723095 222.86118768 304.75 225.8125 C302.44842111 227.18467182 300.15219809 228.55992546 297.87597656 229.97387695 C295.375 231.4375 295.375 231.4375 292.45996094 232.76635742 C287.68749784 235.1711389 284.97523527 236.898088 282.98974609 241.99023438 C281.94338024 246.2786424 281.39969155 250.62269471 280.875 255 C280.56376296 257.24704441 280.23883312 259.49148364 279.90539551 261.7353363 C279.61012884 263.7662488 279.34991787 265.80216779 279.09179688 267.83813477 C278.35960622 271.51479922 277.29412236 274.22817322 275.375 277.4375 C271.51885032 279.36557484 267.15606593 278.91214007 263.09017944 277.82861328 C260.57582212 276.95031238 258.10745583 275.99442334 255.63671875 275 C254.71647415 274.64164062 253.79622955 274.28328125 252.84809875 273.9140625 C249.91445982 272.76775852 246.98866113 271.60274046 244.0625 270.4375 C242.14043675 269.68501475 240.21791373 268.93370275 238.29492188 268.18359375 C229.13294823 264.59599081 220.00975907 260.9152004 210.9296875 257.125 C210.17439255 256.81175781 209.4190976 256.49851562 208.64091492 256.17578125 C197.48912532 251.47563277 187.5117252 245.39821106 178.375 237.4375 C177.53195313 236.715625 176.68890625 235.99375 175.8203125 235.25 C165.78630883 226.46643447 157.47458694 216.77150766 150.92578125 205.12890625 C150.49378418 204.36707031 150.06178711 203.60523438 149.61669922 202.8203125 C148.7630342 201.30154943 147.92414594 199.77436224 147.10205078 198.23828125 C144.53397612 193.65609186 142.55783656 191.20911303 137.375 189.4375 C133.12630197 189.4375 131.12403962 189.78754593 127.89453125 192.58984375 C125.2469644 195.58221 123.50030196 198.47779823 121.625 202 C103.40719165 235.03090591 75.51373939 251.49899603 41.43475342 264.6428833 C39.23684919 265.49079616 37.04060182 266.34292917 34.84423828 267.19482422 C30.89116488 268.7244803 26.93172448 270.23659286 22.96743774 271.73693848 C21.41682284 272.3248053 19.86746037 272.91598731 18.31942749 273.51062012 C16.13907382 274.34572329 13.95341335 275.16507419 11.765625 275.98046875 C11.12186417 276.22989731 10.47810333 276.47932587 9.81483459 276.73631287 C5.53933325 278.30427134 1.91320501 278.78321826 -2.625 278.4375 C-5.25977015 276.81473124 -6.30315377 275.43325078 -7.25439453 272.49023438 C-7.8247162 270.06623611 -8.26629062 267.64171284 -8.6875 265.1875 C-8.86700195 264.29651611 -9.04650391 263.40553223 -9.23144531 262.48754883 C-10.05215032 258.3181142 -10.71015738 254.34497048 -10.69921875 250.08984375 C-10.89510075 245.67161645 -11.10208231 242.11048944 -13.625 238.4375 C-19.91542954 232.92712581 -27.36588279 229.03511643 -34.68457031 225.07324219 C-45.93693927 218.81362146 -45.93693927 218.81362146 -47.625 215.4375 C-47.86423907 209.97687726 -47.3584386 205.35760635 -46.05859375 200.015625 C-45.90084976 199.34835388 -45.74310577 198.68108276 -45.58058167 197.99359131 C-44.9137908 195.17394298 -44.22624359 192.35946879 -43.5402832 189.54443359 C-43.03896438 187.47402727 -42.54852153 185.40125101 -42.05859375 183.328125 C-41.76009521 182.10125977 -41.46159668 180.87439453 -41.15405273 179.61035156 C-40.39453408 175.0553426 -41.21004988 172.70597576 -43.8125 169.00390625 C-44.26004639 168.36130859 -44.70759277 167.71871094 -45.16870117 167.05664062 C-45.64927979 166.37794922 -46.1298584 165.69925781 -46.625 165 C-47.11395752 164.29423828 -47.60291504 163.58847656 -48.10668945 162.86132812 C-50.46960426 159.45805689 -52.86853379 156.09112754 -55.35546875 152.77734375 C-55.97905273 151.92837524 -55.97905273 151.92837524 -56.61523438 151.06225586 C-57.7436345 149.53095431 -58.89267427 148.01492372 -60.04296875 146.5 C-62.00757166 142.69691683 -62.50533516 139.5850329 -61.625 135.4375 C-60.32632227 132.63307262 -58.60883386 130.27200371 -56.75 127.8125 C-56.26055908 127.12446289 -55.77111816 126.43642578 -55.2668457 125.72753906 C-52.81406165 122.29860288 -50.26808275 118.97275384 -47.59765625 115.7109375 C-42.67370589 109.8214961 -42.67370589 109.8214961 -40.2734375 102.70703125 C-40.76566538 99.48897542 -41.66917894 96.55301361 -42.625 93.4375 C-43.31152177 90.54548043 -43.94798789 87.64527699 -44.57592773 84.73999023 C-45.01796964 82.69724751 -45.47404795 80.65748092 -45.94555664 78.62133789 C-48.32233037 68.14743477 -48.32233037 68.14743477 -47.625 63.4375 C-43.96895492 58.5652452 -38.56421612 55.65024806 -33.4375 52.5 C-32.63763672 52.00048828 -31.83777344 51.50097656 -31.01367188 50.98632812 C-29.81000977 50.23706055 -29.81000977 50.23706055 -28.58203125 49.47265625 C-27.77531982 48.95783691 -26.9686084 48.44301758 -26.13745117 47.91259766 C-23.625 46.4375 -23.625 46.4375 -20.90356445 45.30224609 C-17.91462434 43.94856834 -15.92363547 42.79546544 -13.625 40.4375 C-11.60484148 35.05180061 -10.89728705 29.62188899 -10.1875 23.9375 C-9.86889249 21.68381687 -9.53776751 19.432554 -9.19773865 17.18200684 C-8.99114854 15.78840602 -8.79871181 14.39260389 -8.6231842 12.99475098 C-7.78077106 6.83328864 -6.70064425 0.80869844 0 0 Z " fill="#000000" transform="translate(61.625,-0.4375)"/>
<path d="M0 0 C3.05057086 1.96850464 5.48377181 4.39683878 8 7 C8.66128906 7.66386719 9.32257813 8.32773438 10.00390625 9.01171875 C16.53177273 15.92282592 21.23761531 23.94271111 25.77734375 32.25390625 C31.73732638 43.05215142 38.33368332 48.77989741 50 53 C61.32117067 55.8213643 71.9909703 53.89072025 82.125 48.4375 C90.93999826 42.8091443 95.39825819 34.43756163 100.08984375 25.375 C105.05656491 16.59944359 112.86281706 4.56859147 122 0 C125.79877599 -0.35173852 128.14360153 -0.52701444 131.4375 1.5 C133.16059587 4.25695339 133.92919514 6.45438495 133.77734375 9.734375 C132.33645985 13.9339361 128.84452751 16.49769921 125.65625 19.453125 C118.90876271 25.92277458 114.6009901 34.22983512 110.19506836 42.37939453 C108.09257786 46.23514669 105.87383882 49.64610684 103 53 C115.46620975 50.93137131 127.25991182 47.49662437 138.796875 42.3046875 C142.48270267 40.80338696 144.2371578 40.80273203 148 42 C150.83336378 43.75863959 151.02887833 45.103962 151.9375 48.375 C152 52 152 52 150.58203125 54.47265625 C147.05110882 57.92879364 143.32711156 59.3356611 138.75 61.0625 C137.85974121 61.40684082 136.96948242 61.75118164 136.05224609 62.10595703 C118.13804381 68.86500636 100.18498193 71.32062083 81.11328125 71.30078125 C79.51970817 71.30468481 77.92613611 71.30902276 76.33256531 71.31376648 C73.0121217 71.32116914 69.6917845 71.32098204 66.37133789 71.31567383 C63.00759499 71.31104605 59.64421386 71.31795355 56.28051758 71.33618164 C29.59526032 71.47953451 4.34184325 70.65709096 -20.375 59.4375 C-20.99987305 59.15680664 -21.62474609 58.87611328 -22.26855469 58.58691406 C-25.74244993 56.92246008 -28.15548973 55.43506622 -30 52 C-29.87971231 48.57180074 -29.6667364 46.05274169 -27.8125 43.125 C-25.09660783 41.43927383 -23.22374696 41.18514763 -20 41 C-16.76931505 41.93934138 -13.75547968 43.31649935 -10.6875 44.6875 C-3.9862273 47.53409679 2.58402164 49.93549767 9.6875 51.5625 C10.41171143 51.73031982 11.13592285 51.89813965 11.88208008 52.07104492 C13.57686792 52.43700021 15.28775404 52.7271578 17 53 C17.33 52.67 17.66 52.34 18 52 C17.59910156 51.37996094 17.19820312 50.75992188 16.78515625 50.12109375 C11.30872634 41.58978458 11.30872634 41.58978458 8.953125 37.38671875 C3.4440128 27.64746358 -3.10035262 19.89964738 -11 12 C-11.57971014 4.92753623 -11.57971014 4.92753623 -9.4375 1.5 C-5.89383548 -0.68071663 -4.10900306 -0.75331723 0 0 Z " fill="#000000" transform="translate(136,62)"/>
<path d="M0 0 C1.59357308 -0.00390356 3.18714514 -0.00824151 4.78071594 -0.01298523 C8.10115955 -0.02038789 11.42149675 -0.02020079 14.74194336 -0.01489258 C18.10568626 -0.0102648 21.46906739 -0.0171723 24.83276367 -0.03540039 C52.69539593 -0.18506742 82.11082556 0.07229758 107.11328125 14.30078125 C109.50390625 16.76171875 109.50390625 16.76171875 111.11328125 19.30078125 C111.05299281 22.79751087 110.81105302 25.19903635 108.92578125 28.17578125 C106.20988908 29.86150742 104.33702821 30.11563362 101.11328125 30.30078125 C97.8825963 29.36143987 94.86876093 27.9842819 91.80078125 26.61328125 C85.09950855 23.76668446 78.52925961 21.36528358 71.42578125 19.73828125 C70.70156982 19.57046143 69.9773584 19.4026416 69.23120117 19.22973633 C67.53641333 18.86378104 65.82552721 18.57362345 64.11328125 18.30078125 C63.78328125 18.63078125 63.45328125 18.96078125 63.11328125 19.30078125 C63.53738281 19.955625 63.96148437 20.61046875 64.3984375 21.28515625 C67.5856381 26.24458049 70.6586937 31.22549438 73.55078125 36.36328125 C77.82272195 43.7412191 82.74853056 50.24113497 89.11328125 55.92578125 C91.64772673 58.37903168 92.61104145 59.93556715 92.80078125 63.48828125 C92.11328125 67.30078125 92.11328125 67.30078125 90.55078125 69.80078125 C87.00711673 71.98149788 85.22228431 72.05409848 81.11328125 71.30078125 C78.06271039 69.33227661 75.62950944 66.90394247 73.11328125 64.30078125 C72.12134766 63.30498047 72.12134766 63.30498047 71.109375 62.2890625 C64.58150852 55.37795533 59.87566594 47.35807014 55.3359375 39.046875 C49.05114126 27.66013532 41.65427536 21.64511271 29.16796875 17.68359375 C17.4049668 15.49200783 6.44625078 18.10138521 -3.5078125 24.45703125 C-10.81589114 30.1210922 -14.80506558 37.86785554 -18.9765625 45.92578125 C-23.94328366 54.70133766 -31.74953581 66.73218978 -40.88671875 71.30078125 C-44.68549474 71.65251977 -47.03032028 71.82779569 -50.32421875 69.80078125 C-52.04731462 67.04382786 -52.81591389 64.8463963 -52.6640625 61.56640625 C-51.2231786 57.36684515 -47.73124626 54.80308204 -44.54296875 51.84765625 C-37.79548146 45.37800667 -33.48770885 37.07094613 -29.08178711 28.92138672 C-26.97929661 25.06563456 -24.76055757 21.65467441 -21.88671875 18.30078125 C-34.3529285 20.36940994 -46.14663057 23.80415688 -57.68359375 28.99609375 C-61.36942142 30.49739429 -63.12387655 30.49804922 -66.88671875 29.30078125 C-69.72008253 27.54214166 -69.91559708 26.19681925 -70.82421875 22.92578125 C-70.88671875 19.30078125 -70.88671875 19.30078125 -69.46875 16.828125 C-65.93782757 13.37198761 -62.21383031 11.96512015 -57.63671875 10.23828125 C-56.30133057 9.72177002 -56.30133057 9.72177002 -54.93896484 9.19482422 C-37.02476256 2.43577489 -19.07170068 -0.01983958 0 0 Z " fill="#000000" transform="translate(294.88671875,378.69921875)"/>
<path d="M0 0 C10.91386275 6.81236272 18.64882523 19.22999828 24.6875 30.3125 C31.36326281 42.46896401 38.52812471 49.18343801 52.01953125 53.671875 C62.70855562 55.44283762 73.23684207 54.11625174 82.53515625 48.45703125 C89.65235018 43.26468776 93.92850007 37.03625094 98.06323242 29.38769531 C101.48273628 23.07590752 105.02173363 17.28956513 109.6875 11.8125 C110.12666748 11.2966333 110.56583496 10.7807666 111.01831055 10.24926758 C114.94405163 5.80097505 118.78912241 1.65938455 124.5625 -0.0625 C128 0 128 0 130.9375 1.4375 C133.21364284 4.26543504 133.91364689 6.22155804 133.671875 9.875 C132.55281006 13.41436818 130.03831151 15.3177487 127.34375 17.765625 C119.97670428 24.78887525 114.85607275 33.5836003 110.09399414 42.48046875 C108.0314886 46.31323167 105.85077574 49.67516267 103 53 C114.66143125 51.67379802 126.07373534 48.12700165 136.78125 43.33984375 C141.10145634 41.54150543 143.37425685 41.39334516 148 42 C150.5625 44.0625 150.5625 44.0625 152 47 C152.0625 50.5625 152.0625 50.5625 151 54 C134.57281462 69.64350314 103.28400019 71.49233469 81.8125 71.3984375 C80.13256709 71.40046846 78.45263504 71.40338826 76.77270508 71.40713501 C73.28360445 71.41151051 69.79473715 71.40528414 66.30566406 71.39111328 C61.88877268 71.3740243 57.47242868 71.38389156 53.05555725 71.40183067 C49.59602925 71.41279944 46.13662577 71.40916309 42.67709351 71.4014473 C41.05081107 71.3994812 39.42451637 71.40177411 37.79824829 71.40888596 C22.46885626 71.46125279 7.52657636 69.80646318 -7 64.625 C-7.88155762 64.31973389 -8.76311523 64.01446777 -9.67138672 63.69995117 C-26.54951654 57.73642876 -26.54951654 57.73642876 -30 52 C-29.88081199 48.60314182 -29.58128695 46.05999385 -27.9375 43.0625 C-24.80237434 41.34323754 -21.46901015 41.67012846 -18 42 C-14.60546875 43.13671875 -14.60546875 43.13671875 -11.1875 44.6875 C-5.15959719 47.29521638 0.89348267 49.22670015 7.25 50.875 C8.07218018 51.08987061 8.89436035 51.30474121 9.74145508 51.52612305 C12.95224314 52.3382971 15.6704604 53 19 53 C18.5875 52.44054687 18.175 51.88109375 17.75 51.3046875 C14.20476906 46.38251418 11.04026316 41.37925304 8.125 36.0625 C3.68960958 28.0622975 -1.66002109 20.87044031 -8.5625 14.8125 C-11.00271857 11.99686319 -11.44368503 11.37181995 -11.6875 7.875 C-11 4 -11 4 -8.875 1.5 C-5.49920427 -0.26128473 -3.76536409 -0.39163561 0 0 Z " fill="#000000" transform="translate(254,296)"/>
<path d="M0 0 C1.67749639 -0.00645222 3.35499173 -0.01318222 5.03248596 -0.02017212 C8.53462319 -0.03207151 12.03666238 -0.0358609 15.53881836 -0.03466797 C19.08297252 -0.03450598 22.62660675 -0.04831643 26.1706543 -0.07568359 C55.54642867 -0.29909287 81.47902343 1.5900838 108.44140625 14.3359375 C106.89595479 19.81526539 104.28597413 24.45022931 101.44140625 29.3359375 C100.50683594 28.96082031 99.57226562 28.58570313 98.609375 28.19921875 C90.88686745 25.16676316 83.1584149 22.56388566 75.12890625 20.4609375 C74.31123779 20.24606689 73.49356934 20.03119629 72.65112305 19.80981445 C69.51443331 19.011714 66.6909986 18.3359375 63.44140625 18.3359375 C63.85390625 18.89539063 64.26640625 19.45484375 64.69140625 20.03125 C68.23663719 24.95342332 71.40114309 29.95668446 74.31640625 35.2734375 C78.75179667 43.27364 84.10142734 50.46549719 91.00390625 56.5234375 C93.44412482 59.33907431 93.88509128 59.96411755 94.12890625 63.4609375 C93.44140625 67.3359375 93.44140625 67.3359375 91.31640625 69.8359375 C87.94061052 71.59722223 86.20677034 71.72757311 82.44140625 71.3359375 C71.53059407 64.52547893 63.78762194 52.1060881 57.75390625 41.0234375 C52.56490289 31.50259804 47.56003171 24.87899383 37.44140625 20.3359375 C36.7659375 20.01625 36.09046875 19.6965625 35.39453125 19.3671875 C26.73946006 15.85309845 16.37297971 16.02887985 7.56640625 18.8984375 C-3.55837461 23.60952598 -10.0077419 31.5379527 -15.57128906 41.89770508 C-21.34119601 52.60040121 -28.4918662 63.20256103 -38.55859375 70.3359375 C-42.6817995 71.51399629 -44.61748153 71.79648178 -48.49609375 69.8984375 C-50.77223659 67.07050246 -51.47224064 65.11437946 -51.23046875 61.4609375 C-50.11140381 57.92156932 -47.59690526 56.0181888 -44.90234375 53.5703125 C-37.53529803 46.54706225 -32.4146665 37.7523372 -27.65258789 28.85546875 C-25.59008235 25.02270583 -23.40936949 21.66077483 -20.55859375 18.3359375 C-32.220025 19.66213948 -43.63232909 23.20893585 -54.33984375 27.99609375 C-58.66005009 29.79443207 -60.9328506 29.94259234 -65.55859375 29.3359375 C-68.12109375 27.2734375 -68.12109375 27.2734375 -69.55859375 24.3359375 C-69.62109375 20.7734375 -69.62109375 20.7734375 -68.55859375 17.3359375 C-60.97239983 10.16353598 -49.30000366 7.38482155 -39.43359375 4.5859375 C-38.74305908 4.38750244 -38.05252441 4.18906738 -37.34106445 3.98461914 C-24.96136116 0.62558436 -12.73485377 0.01170541 0 0 Z " fill="#000000" transform="translate(175.55859375,144.6640625)"/>
</svg>
